<svg id="b0a37f3a-1907-4368-876c-1460423e9ec9" data-name="Layer 1" xmlns="http://www.w3.org/2000/svg" width="1099.22345" height="734.89191" viewBox="0 0 1099.22345 734.89191"><title>google_analytics</title><path d="M1133.42648,369.28218C1091.79965,205.596,947.96585,87.43752,779.13608,82.69828c-89.25523-2.50549-183.17665,27.0965-251.55836,130.68464C405.338,398.55792,535.08963,526.51953,625.549,587.32434A566.02694,566.02694,0,0,1,742.54458,692.47955C803.647,764.98734,921.194,855.08846,1061.18723,713.91387,1162.65449,611.59034,1161.15406,478.31333,1133.42648,369.28218Z" transform="translate(-50.38827 -82.55404)" fill="#f2f2f2"/><ellipse cx="942" cy="712.39191" rx="156" ry="22.5" fill="#3f3d56"/><rect y="77.99905" width="810" height="491.78571" fill="#3f3d56"/><circle cx="13.08001" cy="89.75129" r="5.84787" fill="#4578ad"/><circle cx="28.02455" cy="89.75129" r="5.84787" fill="#4578ad"/><circle cx="42.9691" cy="89.75129" r="5.84787" fill="#4578ad"/><circle cx="151.42299" cy="191.9053" r="68.70536" fill="#f2f2f2"/><rect x="7.23214" y="289.53923" width="288.3817" height="9.9442" fill="#4578ad"/><rect x="7.23214" y="384.46111" width="288.3817" height="9.9442" fill="#f2f2f2"/><rect x="7.23214" y="412.48566" width="288.3817" height="9.9442" fill="#f2f2f2"/><rect x="7.23214" y="440.51021" width="288.3817" height="9.9442" fill="#f2f2f2"/><rect x="7.23214" y="468.53477" width="288.3817" height="9.9442" fill="#f2f2f2"/><rect x="7.23214" y="496.55932" width="288.3817" height="9.9442" fill="#f2f2f2"/><rect x="7.23214" y="524.58388" width="288.3817" height="9.9442" fill="#f2f2f2"/><rect x="341.71875" y="122.29593" width="460.14509" height="1.80804" fill="#4578ad"/><rect x="341.71875" y="140.37629" width="460.14509" height="1.80804" fill="#4578ad"/><rect x="341.71875" y="158.45664" width="460.14509" height="1.80804" fill="#4578ad"/><rect x="341.71875" y="176.537" width="460.14509" height="1.80804" fill="#4578ad"/><rect x="341.71875" y="194.61736" width="460.14509" height="1.80804" fill="#4578ad"/><rect x="341.71875" y="212.69771" width="460.14509" height="1.80804" fill="#4578ad"/><rect x="341.71875" y="230.77807" width="460.14509" height="1.80804" fill="#4578ad"/><rect x="341.71875" y="248.85843" width="460.14509" height="1.80804" fill="#4578ad"/><rect x="341.71875" y="266.93879" width="460.14509" height="1.80804" fill="#4578ad"/><rect x="341.71875" y="285.01914" width="460.14509" height="1.80804" fill="#4578ad"/><rect x="341.71875" y="303.0995" width="460.14509" height="1.80804" fill="#4578ad"/><rect x="349.85491" y="277.787" width="30.73661" height="7.23214" fill="#4578ad"/><rect x="399.57589" y="260.61066" width="30.73661" height="7.23214" fill="#4578ad"/><rect x="449.29688" y="224.44995" width="30.73661" height="7.23214" fill="#4578ad"/><rect x="499.01786" y="241.62629" width="30.73661" height="7.23214" fill="#4578ad"/><rect x="548.73884" y="206.36959" width="30.73661" height="7.23214" fill="#4578ad"/><rect x="598.45982" y="241.62629" width="30.73661" height="7.23214" fill="#4578ad"/><rect x="648.1808" y="188.28923" width="30.73661" height="7.23214" fill="#4578ad"/><rect x="697.90179" y="153.03254" width="30.73661" height="7.23214" fill="#4578ad"/><rect x="747.62277" y="171.11289" width="30.73661" height="7.23214" fill="#4578ad"/><polygon points="747.623 176.537 747.623 249.31 728.638 249.31 728.638 156.649 697.902 156.649 697.902 249.31 678.917 249.31 678.917 191.905 648.181 191.905 648.181 249.31 579.475 249.31 579.475 209.986 548.739 209.986 548.739 249.31 498.566 249.31 498.566 266.939 480.033 266.939 480.033 228.066 449.297 228.066 449.297 266.939 399.576 266.939 399.576 285.019 349.855 285.019 349.855 304.908 399.576 304.908 529.754 304.908 548.739 304.908 579.475 304.908 747.623 304.908 778.359 304.908 778.359 285.019 778.359 176.537 747.623 176.537" fill="#4578ad" opacity="0.1"/><path d="M518.93022,453.47685a12.53852,12.53852,0,0,0-.81954-3.13751,1.42025,1.42025,0,0,0-.722-.88926,1.48786,1.48786,0,0,0-.71641-.008l-3.67816.56281a1.41,1.41,0,0,0-.83922.32608c-.47906.50382-.00733,1.31508-.022,2.01014a1.88944,1.88944,0,0,1-1.464,1.62588,5.53435,5.53435,0,0,1-2.32625-.02884l-5.14315-.79926a8.48,8.48,0,0,0,3.89085-2.59645c.67682-.80179,1.0369-2.29871.05874-2.67841a2.4016,2.4016,0,0,0-.89332-.07173c-2.3302.01812-4.16388-1.92745-6.34534-2.74686a7.01588,7.01588,0,0,0-7.896,2.35385l2.73982.13209a1.21615,1.21615,0,0,1,.7298.19464c.60045.49333-.14606,1.44091-.06147,2.21341.1099,1.00365,1.44251,1.21794,2.447,1.31943s2.27893.91766,1.79572,1.80417c-5.04895,1.73908-10.1868-3.39952-15.48926-2.767a31.47061,31.47061,0,0,0-3.91951,1.01882c-8.004,2.02511-16.27866-3.37811-24.45517-2.23381A31.05331,31.05331,0,0,0,450.463,450.489a7.19654,7.19654,0,0,0-3.08217,1.60766,2.47024,2.47024,0,0,0-.35031,3.18272,17.91282,17.91282,0,0,1-6.27745-.59671,3.51691,3.51691,0,0,1,1.8081,3.09949,37.24562,37.24562,0,0,0-9.54144,2.90932,16.07007,16.07007,0,0,0,1.97484,2.63075l-4.17335,2.68115a2.38168,2.38168,0,0,1,1.319,3.47861c1.462-.65039,2.368-2.33289,3.93134-2.674a5.29781,5.29781,0,0,1,3.03793.58908,4.746,4.746,0,0,0,3.0453.47984c1.00581-.29539,1.74768-1.59958,1.10856-2.43051a52.0399,52.0399,0,0,1,13.219-2.06525,1.65776,1.65776,0,0,1,1.00114.19c.58277.40431.42944,1.2776.39805,1.9862s.52088,1.63987,1.15419,1.32048c-.74509.6461-.10814,1.86242.6067,2.54184s1.57642,1.6169,1.13879,2.50069c-.11423.23066-.308.41522-.41786.648-.32439.687.19067,1.488.79819,1.94423a6.80413,6.80413,0,0,1,1.77368,1.40689c.422.63178.23037,1.73765-.52426,1.82587L460.266,475.022a5.58377,5.58377,0,0,0-1.44893,2.74577,5.76138,5.76138,0,0,1,.71242,7.881,19.68922,19.68922,0,0,1-3.56466,2.72958,4.89831,4.89831,0,0,0-2.32228,3.66275c.00524,2.59368-.20668,5.00331.76523,7.408a114.1158,114.1158,0,0,0,6.19529,12.92531c.61289,1.09615,1.405,2.29758,2.64658,2.48631q-2.35369-5.72991-4.23758-11.63814a2.66829,2.66829,0,0,1,2.24287.73088,4.64889,4.64889,0,0,1,.43517,1.96094,6.07444,6.07444,0,0,0,.77465,1.82109l7.493,13.34732a5.52317,5.52317,0,0,0,2.52082,2.74226,14.25812,14.25812,0,0,1,2.33577.645c.54759.32329.91641.89717,1.47465,1.2017,1.57844.86108,3.77343-.79033,5.24854.23776a14.766,14.766,0,0,1,1.07873,1.09752c1.36238,1.17981,3.59726.39055,5.17,1.27066a6.10935,6.10935,0,0,1,2.07953,2.72964c1.35423,2.57508,3.54543,5.09788,6.44766,5.30293a17.97387,17.97387,0,0,1,2.734.09432c.89114.20277,1.76835.98048,1.6253,1.88314-.24523,1.54751.51935,3.242.314,4.79531-.374,2.82937-4.38731,4.07273-4.732,6.90582a16.02536,16.02536,0,0,1-.105,1.86776c-.181.74416-.7399,1.35005-.93849,2.08971-.37634,1.40173.62793,2.79674,1.73117,3.73978s2.41921,1.75622,3.02236,3.07632c.63753,1.39533.32438,3.02227.53171,4.54226.45264,3.3183,3.31874,5.77826,6.26835,7.3644a6.54785,6.54785,0,0,1,2.44529,1.78948c.7592,1.09423.68356,2.53677.93707,3.84423.62087,3.202,3.31644,5.8404,3.393,9.10118.0544,2.31766-1.23392,4.42023-2.00351,6.60706a15.40828,15.40828,0,0,0,1.25822,12.77879,20.46586,20.46586,0,0,1,1.67152,2.9425c.72675,1.88061.49094,4.01843,1.161,5.92.88591,2.514,3.32021,4.59049,3.08722,7.24582,1.10517,2.295,3.54558,3.42268,5.99954,4.10578l4.39806,1.22425a5.65126,5.65126,0,0,0,2.57959.301,1.936,1.936,0,0,0,1.65372-1.75563,16.07,16.07,0,0,1-6.16054-2.31787c-1.77788-1.31426-2.99576-3.65461-2.3212-5.76011.31279-.97631.97823-2.10372.34557-2.91042-.36223-.46189-1.02459-.58257-1.43319-1.004a2.19144,2.19144,0,0,1,.03981-2.55418,8.6244,8.6244,0,0,0,1.30516-2.39766,2.50173,2.50173,0,0,0-1.17261-2.60273,6.21848,6.21848,0,0,0,2.17686-1.39676,2.12228,2.12228,0,0,0,.38658-2.40481c1.33731.1696,2.91613.25267,3.794-.77032a3.39816,3.39816,0,0,0,.37588-3.0784,13.147,13.147,0,0,1-.75976-3.12689,56.98046,56.98046,0,0,0,9.24454-.31347,5.99428,5.99428,0,0,0-2.81064-3.52c1.38947-.2351,2.6553-1.89857,3.09429-3.23766a8.32987,8.32987,0,0,0,.0557-4.18057,2.24312,2.24312,0,0,1-.04156-1.09525,2.13464,2.13464,0,0,1,1.09949-1.06318l6.89682-3.9609a4.01744,4.01744,0,0,0,1.10287-.81419,3.27682,3.27682,0,0,0,.24556-3.18149,15.9809,15.9809,0,0,1-1.10514-3.14578c-.42626-3.30634,3.1131-5.67862,4.30757-8.791a13.246,13.246,0,0,0,.655-3.85417c.09743-1.40175.10467-3.02995-.97163-3.93327-1.03172-.8659-2.64377-.67274-3.72336-1.47818-.98979-.73845-1.33126-2.17261-2.41257-2.76906-.982-.54166-2.21318-.19717-3.30532-.45192-1.923-.44855-3.13306-2.6648-5.09693-2.87-1.10806-.11578-2.36213.42592-3.27029-.21939-.80023-.56862-.8323-1.71151-.98462-2.68129a7.48807,7.48807,0,0,0-6.04369-6.06315c-1.14246-.18321-2.386-.11363-3.35794-.74147-.98416-.63575-1.43538-1.826-2.20844-2.70641-1.24592-1.41894-3.20819-1.92308-5.04639-2.35521l-7.477-1.75774c-1.32731-.312-3.03821-.47749-3.75048.68518a5.37425,5.37425,0,0,0-.44365,1.39532,4.321,4.321,0,0,1-4.0636,3.05862,4.80553,4.80553,0,0,0-2.83376-2.19263,17.65664,17.65664,0,0,1-2.29281-.54566,3.22068,3.22068,0,0,1-1.39748-4.46771,4.009,4.009,0,0,0-.68507-4.82232,6.50733,6.50733,0,0,0-4.81584-1.30314c-.44655-.97435.30008-2.07366,1.10468-2.78175s1.78158-1.4042,1.9568-2.46158c.27562-1.66326-1.84661-2.92655-3.458-2.43061s-2.6398,2.06106-3.31965,3.60385a10.61031,10.61031,0,0,1-1.337,2.56375,2.62692,2.62692,0,0,1-2.54334,1.04129c-1.32681-.33912-1.83924-1.91546-2.1329-3.25307a21.15718,21.15718,0,0,1-.70771-5.44971,7.12623,7.12623,0,0,1,2.05484-4.96277c2.20559-2.02485,5.58909-1.82635,8.56572-1.50335a2.17549,2.17549,0,0,1,.223-2.8735,3.267,3.267,0,0,1,2.96113-.72746,4.08053,4.08053,0,0,1,2.294,1.37157c.84588,1.03129,1.08641,2.42372,1.72578,3.59431s2.077,2.169,3.25372,1.541c1.01637-.54244,1.17769-1.95179.92473-3.07574a11.5648,11.5648,0,0,1-.69858-3.3653c.17484-2.19131,2.44637-3.51034,4.45086-4.41281s4.29971-2.11623,4.61728-4.29145a3.91266,3.91266,0,0,1,.23787-1.24715,2.44646,2.44646,0,0,1,.89749-.844c5.85016-3.86615,11.79761-7.77951,18.48406-9.892.34788-.10991.3887.01224.74322-.07387.49618-.28677.16741-1.08006-.3083-1.39963s-1.11156-.56465-1.23225-1.12488c-.08872-.41182.15392-.81619.21695-1.23272a1.539,1.539,0,0,0-2.02043-1.55934c-.53711-.71131.52567-1.53782,1.385-1.77442A37.61126,37.61126,0,0,1,534.7265,474.76a1.42328,1.42328,0,0,1,.89914.15293,1.07511,1.07511,0,0,1,.0734,1.4678,8.63712,8.63712,0,0,1-1.20929,1.0979,3.30088,3.30088,0,0,0-.8562,3.32c1.3951.70964,2.91179,1.44016,4.4569,1.19016s2.91655-1.98607,2.19028-3.37258c-.67632-1.29117-2.70786-1.58239-3.05722-2.99748-.409-1.65682,1.93636-3.13037,1.408-4.7531-.23142-.7108-.93981-1.12913-1.48337-1.64229a4.45626,4.45626,0,0,1-.97519-4.94136,5.62212,5.62212,0,0,1-4.93081-1.543c-1.1794-1.19026-2.12031-3.06786-3.79507-3.0146-1.53688.04888-2.86064,1.84188-4.2977,1.29486-.35354-.13458-.7263-.40848-1.06885-.248a.88325.88325,0,0,0-.3987.6618c-.36519,1.746.263,3.73537-.68857,5.24413-1.03553,1.64182-3.43076,1.86945-4.68614,3.35-.68147.80368-.94549,1.88663-1.57189,2.73394s-1.95587,1.386-2.70758.64761a3.7319,3.7319,0,0,0-1.01383-4.53789,9.9582,9.9582,0,0,0-2.23928-1.0892,13.28064,13.28064,0,0,1-2.50166-1.39425,2.46413,2.46413,0,0,1-.91838-.98267,2.23934,2.23934,0,0,1,.0628-1.55395,6.354,6.354,0,0,1,5.05642-4.191c1.00088-.13616,2.16576-.08818,2.82813-.85078.35047-.40351.53436-1.01357,1.04307-1.17745a1.53853,1.53853,0,0,1,.963.11859l3.73579,1.31493a2.6219,2.6219,0,0,0,1.33081.22011.90227.90227,0,0,0,.78019-.94821c-.11936-.6204-1.074-.9181-.98711-1.54387a1.03065,1.03065,0,0,1,.31267-.52556,13.35611,13.35611,0,0,1,10.59307-4.18317c.47152.77441-.27422,1.69144-.8947,2.35254s-1.11913,1.8423-.36874,2.35117a2.05742,2.05742,0,0,0,.99469.224,8.68511,8.68511,0,0,1,2.64753.803q1.93639.84268,3.79846,1.844a4.81585,4.81585,0,0,1,.09593-2.44609,1.65645,1.65645,0,0,1,1.96211-1.06756c.74222.28724,1.12287,1.27,1.91362,1.36006,1.05482.12011,1.471-1.4382,1.03036-2.40408s-1.31284-1.77465-1.38565-2.83378c-.04912-.71453.22278-1.6007-.348-2.03337a1.55358,1.55358,0,0,0-.67341-.23613l-14.25129-2.6225c-.84627-.15573-2.069-.03637-2.10651.82329-.02095.47985.40768.95459.21784,1.39578-.20263.47088-.86827.42783-1.35309.59438a1.84947,1.84947,0,0,0-1.0575,1.9438,5.409,5.409,0,0,0,.89264,2.19054C521.26076,453.93577,519.85719,453.86451,518.93022,453.47685Z" transform="translate(-50.38827 -82.55404)" fill="#f2f2f2"/><path d="M507.55911,441.37926a4.61488,4.61488,0,0,0-5.06931,1.51816,1.01533,1.01533,0,0,0-.23529,1.06944c.28165.47963.9993.29018,1.52838.11861a3.84666,3.84666,0,0,1,2.41414-.05759c.49681.17058.94129.47205,1.44027.63617a1.4504,1.4504,0,0,0,1.47885-.21611,1.92546,1.92546,0,0,0,.36455-1.38141,1.111,1.111,0,0,0-.2831-.9131,1.45173,1.45173,0,0,0-.65471-.19365,2.255,2.255,0,0,1-1.31979-.77114" transform="translate(-50.38827 -82.55404)" fill="#f2f2f2"/><path d="M512.69782,439.94853a1.174,1.174,0,0,0-1.13466,1.65338,4.75838,4.75838,0,0,0,1.89718.12371,1.62159,1.62159,0,0,0,1.32605-1.21578,3.05279,3.05279,0,0,1-2.16151-.41282" transform="translate(-50.38827 -82.55404)" fill="#f2f2f2"/><path d="M529.93882,437.559a21.8248,21.8248,0,0,0-4.86495,1.65263,3.65523,3.65523,0,0,1,2.33455,3.67129,1.91187,1.91187,0,0,0,.02215.9077c.17866.43317.69642.5957,1.1516.70688a7.59284,7.59284,0,0,0,2.52582.32239,2.573,2.573,0,0,0,2.09073-1.27761,9.10483,9.10483,0,0,1,.43477-1.02776c1.09106-1.66165,4.33228.34753,5.5037-1.25848.41265-.56574.37491-1.41733.91284-1.86562a2.05076,2.05076,0,0,1,.9384-.35812,65.90113,65.90113,0,0,1,7.128-1.01518c1.13372-.09866,2.61146-.50573,2.62089-1.64371a19.74447,19.74447,0,0,0-12.59488,1.69436c-1.404.70321-3.26092,2.18244-4.61331,1.25015-.50637-.34907-.4813-1.289-1.17823-1.68153A3.553,3.553,0,0,0,529.93882,437.559Z" transform="translate(-50.38827 -82.55404)" fill="#f2f2f2"/><path d="M543.904,440.17055l2.00454.38517a2.59757,2.59757,0,0,0-2.70316,2.815c1.87718.62709,3.92372.01686,5.90111.10022s4.2781,1.49584,3.94055,3.446c-.10206.58966-.4427,1.17893-.26556,1.75053a6.51467,6.51467,0,0,0,.67692,1.05391,2.36028,2.36028,0,0,1-.44133,2.4404c-.52477.69895-1.23012,1.25664-1.69074,1.99944-1.14563,1.84744-.49474,4.23581.1877,6.29973a5.554,5.554,0,0,0,1.06793,2.13268c1.01108,1.075,2.65876,1.16852,4.13438,1.19,1.074.01567,2.30434-.03738,2.98354-.86952.88671-1.08639.26667-2.78139.85047-4.05642.5302-1.158,1.881-1.65477,3.10493-2.00711a46.46169,46.46169,0,0,0,6.64691-2.16926c2.63218-1.2107,5.09213-3.09744,7.9852-3.25329a10.961,10.961,0,0,0,2.42522-.1703,1.84394,1.84394,0,0,0,1.4653-1.709c-.05057-.69265-.63659-1.20128-1.0945-1.72344s-.81751-1.32506-.39666-1.87752l7.58311-1.41639c-.53752-1.4649-.95626-3.39419.27891-4.34771.44566-.344,1.04236-.48154,1.42181-.89746a1.83938,1.83938,0,0,0-.425-2.53288,4.87068,4.87068,0,0,0-2.71223-.82223,72.77374,72.77374,0,0,0-10.00061.08894l-19.53691,1.0709a14.27467,14.27467,0,0,0-4.027.40933,18.58547,18.58547,0,0,1-2.90583,1.31789C548.2138,439.269,545.84872,438.964,543.904,440.17055Z" transform="translate(-50.38827 -82.55404)" fill="#f2f2f2"/><path d="M579.8147,456.01506a.80664.80664,0,0,0-.58348.13233.7366.7366,0,0,0-.18993.44992,2.97117,2.97117,0,0,0,.43158,2.12666,2.08248,2.08248,0,0,0,1.9063.914c.9026-.1151,1.56778-.88514,2.39758-1.26089,1.27892-.5786,6.71029-1.4806,2.95318-3.51042-1.29479-.69953-2.13144-.082-3.15194.37867A7.17189,7.17189,0,0,1,579.8147,456.01506Z" transform="translate(-50.38827 -82.55404)" fill="#f2f2f2"/><path d="M612.72279,439.02466a2.14515,2.14515,0,0,0-1.04374.90853.91668.91668,0,0,0,.34379,1.216,1.36833,1.36833,0,0,0,.51179.08119l1.78384.05329c.75781.02264,1.70441.184,1.908.91432.15121.54226-.18722,1.23907.22112,1.62658a1.1503,1.1503,0,0,0,.60683.23668,4.13537,4.13537,0,0,0,1.79738.058c1.29792-.34814.61593-1.14031,1.02472-1.84567.62547-1.07926.51719-.42593,1.61928-1.04448.8139-.4568,1.86564-1.28545,1.18631-2.44971C621.5008,436.75481,614.466,438.15489,612.72279,439.02466Z" transform="translate(-50.38827 -82.55404)" fill="#f2f2f2"/><path d="M647.93138,438.00677l-1.03582.13823a41.72374,41.72374,0,0,0-6.93457,1.32771,11.54153,11.54153,0,0,0,3.037.74521,9.32944,9.32944,0,0,1,1.70118.24182c.99367.29581,1.9949,1.05967,2.95491.66837.59522-.24262.78946-.86238,1.28252-1.19084.34047-.2268,1.63179-.59389,1.77615-.82281C651.87976,437.26382,648.82846,437.88706,647.93138,438.00677Z" transform="translate(-50.38827 -82.55404)" fill="#f2f2f2"/><path d="M652.47981,442.71455a19.42661,19.42661,0,0,0-3.82252,2.79935,2.31415,2.31415,0,0,0-.93964,1.693c.05866.88584,1.00227,1.39966,1.81979,1.74579l3.31132,1.402c.40171-.56619.034-1.34776-.38112-1.90416s-.90852-1.20013-.7251-1.86968c.20932-.76407,1.14093-1.02444,1.92215-1.15607,1.27285-.21447,4.70646-.19725,4.2939-2.24858C657.47246,440.75907,653.75752,442.00037,652.47981,442.71455Z" transform="translate(-50.38827 -82.55404)" fill="#f2f2f2"/><path d="M651.81393,579.49845a3.15969,3.15969,0,0,0,.20015,2.78453,2.82123,2.82123,0,0,0,2.89589,1.00066,5.21683,5.21683,0,0,0,2.68865-1.72866,9.25865,9.25865,0,0,0,1.54647-2.37155,18.51158,18.51158,0,0,0,1.14625-4.19413l1.02812-5.398c.22975-1.20642.22085-4.90512-1.99651-3.70005-.60575.32921-2.00827,2.92846-2.64309,3.66553-1.14413,1.32845-1.29551,2.61743-1.89783,4.22679C654.0276,575.79936,652.51135,577.47939,651.81393,579.49845Z" transform="translate(-50.38827 -82.55404)" fill="#f2f2f2"/><path d="M768.92763,607.12209a16.16473,16.16473,0,0,1-2.107-1.003,17.76012,17.76012,0,0,0-1.06812,5.82133l4.9648-2.80942c.74686-.42262,1.59336-1.00984,1.57731-1.86784a.591.591,0,0,0-.27449-.5373.66942.66942,0,0,0-.34805-.04083,8.40366,8.40366,0,0,0-2.10192.6755,2.5657,2.5657,0,0,1-2.14375.01123" transform="translate(-50.38827 -82.55404)" fill="#f2f2f2"/><path d="M795.118,608.79a10.74748,10.74748,0,0,0-1.59215.57137c-1.13934.5797-1.91441,1.68077-2.93967,2.4443a11.6621,11.6621,0,0,1-3.32163,1.52183.7962.7962,0,0,0,.18588,1.17352,2.30282,2.30282,0,0,0,1.31127.29473,6.92477,6.92477,0,0,0,3.52863-.5436,11.12748,11.12748,0,0,0,1.6613-1.31856,17.59264,17.59264,0,0,1,4.18141-2.36466,4.79928,4.79928,0,0,0,1.45741-.87137c.92148-.90784.98627-2.30838-.34243-2.61737C798.17444,606.83054,796.14025,608.4593,795.118,608.79Z" transform="translate(-50.38827 -82.55404)" fill="#f2f2f2"/><path d="M806.69007,601.231a4.14168,4.14168,0,0,0-1.26719-3.39351,6.45529,6.45529,0,0,1-.75447,3.61484c-.50086.73638-1.28615,1.23383-1.83487,1.93527a1.88483,1.88483,0,0,0-.14866,2.42878,2.412,2.412,0,0,0,1.42945.49233c1.28124.15082,2.76424.23488,3.66286-.69076.49048-.50522.72906-1.25351,1.32726-1.62495a1.61475,1.61475,0,0,0,.58232-.41671c.247-.39265-.14546-.91012-.58724-1.0516s-.92861-.075-1.37261-.20934-.85133-.63361-.62351-1.0377" transform="translate(-50.38827 -82.55404)" fill="#f2f2f2"/><path d="M786.123,555.4071a5.75913,5.75913,0,0,1-2.05505.12116,7.44353,7.44353,0,0,1-2.94926-1.7743,13.009,13.009,0,0,0-7.601-2.6557c-2.50231-.04726-5.028.63083-7.48562.15773a2.95266,2.95266,0,0,0,1.74019,1.96105c.81539.39814,1.71532.59849,2.53463.98852a6.05165,6.05165,0,0,1,2.93136,3.0496,8.61034,8.61034,0,0,0,.82963,1.82408,4.20765,4.20765,0,0,0,3.73229,1.2508c1.78186-.11721,3.64291-.62969,5.30063.03418a13.612,13.612,0,0,1,3.23468,2.48088c1.05889.86306,2.55028,1.50362,3.76615.88089a6.226,6.226,0,0,1-4.30791-5.99091c1.19251.10966,4.62727.06723,4.44226-1.959C790.07915,554.05879,787.14693,555.22177,786.123,555.4071Z" transform="translate(-50.38827 -82.55404)" fill="#f2f2f2"/><path d="M770.52276,569.37881c.21174-1.1613,1.36985-2.18682,1.0091-3.3108a2.03756,2.03756,0,0,0-1.96685-1.18021c-.81613-.01916-1.61788.22394-2.43391.24683a11.86223,11.86223,0,0,0-1.59374.02263c-1.61987.26628-2.61832,1.96414-4.14489,2.56784a25.18757,25.18757,0,0,1-2.93641.55067c-2.19141.57605-3.578,2.64682-5.10988,4.31639a18.2355,18.2355,0,0,1-9.25587,5.39786,8.45152,8.45152,0,0,0-3.5758,1.28232c-1.31152,1.07162-1.63436,2.90873-1.92615,4.577a75.60009,75.60009,0,0,1-3.68023,13.51l5.20348.66436a7.07275,7.07275,0,0,0,2.96771-.04311,8.61536,8.61536,0,0,0,1.952-1.03976,19.487,19.487,0,0,1,7.61335-2.74815,8.08314,8.08314,0,0,1,4.07.28514,3.78451,3.78451,0,0,1,2.48294,3.02633,3.19672,3.19672,0,0,1,3.195.777,5.55363,5.55363,0,0,1,1.52536,3.04508c.13706.71189.2742,1.56487.93479,1.86352.53893.24364,1.15715-.01877,1.74671-.066,2.00056-.16008,3.66063,2.17261,5.627,1.77092,2.10887-.4308,2.62661-3.58912,4.684-4.22177,1.18161-.36336,2.839.07848,3.40485-1.02064.49872-.96878-.49629-2.08673-.39368-3.1715.12634-1.33571,1.7019-1.90265,2.91651-2.47258a9.09546,9.09546,0,0,0,4.1454-11.75744c-1.20226-2.46282-3.56784-4.40149-4.00472-7.10705-.33613-2.0816.48445-4.509-.84273-6.14746-.67515-.83351-1.81826-1.29359-2.22-2.28815a11.27719,11.27719,0,0,1-.28734-1.99766c-.1361-.66133-.71306-1.35309-1.36611-1.18167-1.89569.49758-2.5006,6.35367-3.51554,7.77652A2.354,2.354,0,0,1,770.52276,569.37881Z" transform="translate(-50.38827 -82.55404)" fill="#f2f2f2"/><path d="M735.48359,557.61975a3.0518,3.0518,0,0,0-1.97592-.101c-.62071.25959-.9832,1.17092-.485,1.62312a66.90073,66.90073,0,0,1,11.68285.22669c4.45224.60981,8.85844,2.12036,13.33021,1.67595a67.84264,67.84264,0,0,0-7.77619-1.80445l-4.37775-.83627a33.84824,33.84824,0,0,0-3.55488-.54929C739.8294,557.64823,737.93912,558.30827,735.48359,557.61975Z" transform="translate(-50.38827 -82.55404)" fill="#f2f2f2"/><path d="M739.38529,544.04594c-.32355-.027-.72427-.0503-.89165.2279-.15993.2658.02312.617-.06287.915-.11749.40717-.65074.51119-1.07089.45576a2.05132,2.05132,0,0,0-1.24676.01438,1.05671,1.05671,0,0,0-.40857,1.20032,3.09,3.09,0,0,0,.72061,1.14874,11.736,11.736,0,0,0,1.86975,1.87543c1.3395.98875,3.15422,1.46523,3.99788,2.90054a1.92458,1.92458,0,0,0,.534.71863,1.484,1.484,0,0,0,1.36927-.13787l1.52853-.69842a1.73628,1.73628,0,0,0,.71456-.486,1.57087,1.57087,0,0,0-.15839-1.658,2.84951,2.84951,0,0,1-.60541-1.624c.11216-1.04347,1.45382-1.44261,2.00548-2.3354.55607-.89993.19407-2.05943.25818-3.11545.075-1.23492.851-2.84126-.3975-3.76394-1.06105-.78415-2.07519-.05959-2.837.80613C743.098,542.31542,742.33842,544.29254,739.38529,544.04594Z" transform="translate(-50.38827 -82.55404)" fill="#f2f2f2"/><path d="M748.6636,525.59441c.52185.99919,1.60975,1.59547,2.17881,2.56854.61681,1.05472.54653,2.41747,1.21568,3.43979.68653,1.04888,2.06812,1.60574,2.45314,2.79872.42034,1.30245-.53338,2.88548.22686,4.0235a1.689,1.689,0,0,0,2.4775.22763,1.81732,1.81732,0,0,0-.075-2.53552c-.45012-.4104-1.09645-.58775-1.47227-1.06711a2.23913,2.23913,0,0,1-.38133-.92845,6.07828,6.07828,0,0,1,.09562-2.91312,1.29639,1.29639,0,0,0,.07327-.762c-.1692-.4918-.83511-.52669-1.30248-.75483-1.06151-.51817-1.03575-2.01626-.85029-3.18285-.12348.77668-2.89-.54431-3.17974-.98424-.57551-.874-.26228-2.55982-.37621-3.52559A2.7448,2.7448,0,0,0,748.6636,525.59441Z" transform="translate(-50.38827 -82.55404)" fill="#f2f2f2"/><path d="M720.79218,540.968c-.51063-.57163-1.27975-1.16964-1.96434-.82489a1.24352,1.24352,0,0,0-.46126,1.53345,3.37524,3.37524,0,0,0,1.11393,1.328,38.882,38.882,0,0,1,4.20748,3.60627c2.22731,2.44767,3.40719,5.7504,5.82948,8.00527a3.26964,3.26964,0,0,0,1.83555.99341,1.42659,1.42659,0,0,0,1.57932-1.09018,2.07872,2.07872,0,0,0-.73266-1.52894c-.94094-1.02349-1.971-1.96558-2.85942-3.035a2.55027,2.55027,0,0,1-.7309-1.52647c-.0045-.57582.5206-1.17852,1.0785-1.03592-.67852-.17343-1.18173-1.30384-2.17759-1.51633-.83226-.17759-1.0336.33765-2.02406-.08716C723.59719,544.9793,722.11509,542.449,720.79218,540.968Z" transform="translate(-50.38827 -82.55404)" fill="#f2f2f2"/><path d="M765.17976,485.308a15.64251,15.64251,0,0,1-1.59593-.57009c-1.4026-.421-3.25839.60993-3.07143,2.06237.12422.965,1.02235,1.61566,1.51835,2.45273a5.44991,5.44991,0,0,1,.15293,4.206,3.2883,3.2883,0,0,1-.53069,1.19671,4.05328,4.05328,0,0,1-1.25687.90411,16.81073,16.81073,0,0,0-4.91886,4.17884,1.2043,1.2043,0,0,0-.29705.56c-.0669.49039.426.84761.70473,1.25663.61906.90855.17161,2.13113.23281,3.22884a.9129.9129,0,0,0,.38466.801c.37312.18954.81527-.13241,1.01751-.49881.67115-1.21594.16556-3.16772,1.42463-3.754.23816-.1109.52688-.15765.68578-.36687.25207-.33189.00887-.82331.13662-1.22.1918-.59562,1.00643-.62236,1.63161-.59594a9.261,9.261,0,0,0,3.18113-.4235,2.11761,2.11761,0,0,0,1.053-.60981,2.2914,2.2914,0,0,0,.26781-1.73479,23.51621,23.51621,0,0,0-2.77833-8.4776,5.05089,5.05089,0,0,0,3.26363-.31275c.53441-.32275,1.17527-1.28794.91021-1.94489C766.87691,484.60722,766.11971,485.48167,765.17976,485.308Z" transform="translate(-50.38827 -82.55404)" fill="#f2f2f2"/><path d="M623.39246,501.68243a4.25921,4.25921,0,0,1,.02983,2.14093,1.46436,1.46436,0,0,1-1.65553,1.04533c-.53632-.16255-.84612-.70181-1.22695-1.113-2.11784-2.28635-6.896-.96263-8.20433-3.79122-.534-1.15442-.17108-2.53748-.53529-3.75614a3.34327,3.34327,0,0,0-3.38572-2.3,6.95723,6.95723,0,0,0-1.94832.5816,49.1259,49.1259,0,0,1-12.90846,3.22857,10.606,10.606,0,0,0-2.4803.4513,7.854,7.854,0,0,0-3.94575,4.06605,31.46161,31.46161,0,0,1-2.7229,5.11192,22.701,22.701,0,0,1-4.621,3.94835,4.7149,4.7149,0,0,0-1.52442,1.59772,4.99789,4.99789,0,0,0-.30578,2.37407l.33289,9.7881a8.8399,8.8399,0,0,0,.66006,3.68966c.70364,1.40691,2.09366,2.32838,3.058,3.57121a6.99488,6.99488,0,0,1,1.45113,4.467c-.02052.648-.08491,1.41439.41974,1.82135a1.84562,1.84562,0,0,0,1.032.29682l13.24044,1.08367c2.32909.19062,4.91026.504,6.43088,2.27851.71766.83746,1.29417,2.04178,2.39341,2.13163a8.89258,8.89258,0,0,0,1.40189-.19236,3.44255,3.44255,0,0,1,2.8947,1.8035,8.00135,8.00135,0,0,1,1.28516,5.13421c-.10816,1.13466-.46,2.23775-.53581,3.375-.28859,4.32739,3.37985,8.087,3.451,12.42346.04183,2.55073-1.169,4.934-2.34957,7.19544,1.90532,2.88641.34514,6.73,1.10369,10.10435.71967,3.20134,3.38892,5.70754,4.054,8.92065.30449,1.471.32211,3.28112,1.6192,4.03873a3.69085,3.69085,0,0,0,1.83219.36686,24.154,24.154,0,0,0,10.99919-2.50409c1.60388-.79591,3.2661-1.98407,3.54621-3.75253.22589-1.42615-.49734-3.02137.23869-4.26363.86747-1.46411,3.08971-1.34806,4.366-2.47372,2.07061-1.82617.456-5.30894,1.29493-7.93924.75411-2.36432,3.35-3.6204,4.63679-5.7424a10.20489,10.20489,0,0,0,1.0775-2.92029,41.65681,41.65681,0,0,0,1.09629-7.44813,44.64245,44.64245,0,0,1,.337-4.56209c1.38734-8.61911,9.90827-14.3906,12.67475-22.67072.2642-.79076.38828-1.844-.3152-2.29148a2.01468,2.01468,0,0,0-1.33974-.14022l-6.10354.7695a4.20191,4.20191,0,0,1-2.2579-.13,1.44851,1.44851,0,0,1-.82589-1.86456c1.03665-1.87776-1.09577-4.25063-2.04313-6.175a91.1198,91.1198,0,0,0-9.07375-14.71539,1.49571,1.49571,0,0,1-.39782-.86373l1.73226.05768c-.58475-2.09824-1.54974-4.39434-3.58823-5.16188a8.93287,8.93287,0,0,0-3.64633-.216A53.27022,53.27022,0,0,1,623.39246,501.68243Z" transform="translate(-50.38827 -82.55404)" fill="#f2f2f2"/><path d="M634.14346,454.39832a5.91622,5.91622,0,0,0,3.277,2.17979c2.34751.30034,4.03535-2.12721,5.11-4.2358a2.06972,2.06972,0,0,0,2.15976,1.91477,4.26346,4.26346,0,0,0,1.62445-.63509,32.00229,32.00229,0,0,1,15.16106-3.91926,1.6373,1.6373,0,0,1,1.25033-1.8c1.07765-.21365,2.04838.71805,2.56823,1.68589a9.28383,9.28383,0,0,0,1.66993,2.81408c.82593.72444,2.425.69288,2.75121-.35618.3132-1.00715-.736-1.866-1.60773-2.45982s-1.79051-1.69278-1.20349-2.56905a78.31775,78.31775,0,0,1,13.49136-2.17125,5.64955,5.64955,0,0,0,2.271-.39121,1.76534,1.76534,0,0,0,1.06044-1.86639,5.14269,5.14269,0,0,1-5.36674-2.02428c6.32311-.52179,13.0484-.96654,18.65213,2.00874.67245,1.44359-2.75481,2.64464-1.83783,3.94667a1.65986,1.65986,0,0,0,1.3863.4734,68.75265,68.75265,0,0,0,11.66081-.44472,15.61435,15.61435,0,0,1,4.24077-.34392c2.35288.29018,4.36529,1.86009,6.68008,2.372a3.57423,3.57423,0,0,0,2.79273-.3326A1.77092,1.77092,0,0,0,722.42,445.736c2.17947-2.13606,5.79671-1.60665,8.67195-.584s5.59913,2.67183,8.6423,2.89978c2.18223.16346,4.39478-.42353,6.55109-.05043a40.77838,40.77838,0,0,1,3.94048,1.20763c2.50478.70047,5.15442.5526,7.75508.58631a54.33812,54.33812,0,0,1,19.36424,3.8478,5.75723,5.75723,0,0,1,2.15267,1.27183,2.1106,2.1106,0,0,1,.48069,2.31594l-6.37113-.93093c.60028,1.18171,2.15325,1.38308,3.41444,1.79075s2.5688,1.80041,1.81088,2.88775c-1.36649-.4351-2.6048.93112-3.29508,2.18814s-1.53146,2.76245-2.96349,2.839c-1.28235.06857-2.83323-1.02333-3.66908-.04841a25.02376,25.02376,0,0,1,2.94824,4.71348c.82579,1.72038,1.414,3.88812.29782,5.436a1.409,1.409,0,0,1-.75328.58414c-.91155.23076-1.50381-.88438-2.15752-1.56028a7.83041,7.83041,0,0,0-3.18505-1.49241c-1.11554-.39944-2.29067-1.18522-2.37795-2.3669a4.72731,4.72731,0,0,1,.61979-2.09817,8.08373,8.08373,0,0,0,.6142-3.62577,4.1181,4.1181,0,0,0-1.05851-2.73169,2.12075,2.12075,0,0,0-2.72189-.27967c-.35879.2978-.64635.77417-1.11229.792-.82328.0315-1.45539-1.40384-2.11775-.91388a2.25056,2.25056,0,0,1-.30582,1.50517c-1.97654,1.719-5.013.99178-7.56112,1.599a14.192,14.192,0,0,0-3.44966,1.50651,2.21961,2.21961,0,0,0-.986.82766,1.52645,1.52645,0,0,0,.59326,1.82073,4.70976,4.70976,0,0,0,1.95611.66767c3.10649.58834,6.2583,1.49912,8.71088,3.49445s4.06092,5.29371,3.28481,8.35869l-6.12615-5.85369q.349,3.68676.39613,7.39382a3.32418,3.32418,0,0,1-.19419,1.42218c-.43673.96462-1.62041,1.28922-2.65765,1.50217a2.08177,2.08177,0,0,0-1.59811,2.6672,8.69855,8.69855,0,0,0,2.12878,3.07092,5.89688,5.89688,0,0,1,1.77949,3.24541c.11015,1.25163-.83416,2.66243-2.08761,2.57539a2.754,2.754,0,0,1-2.06048-1.77858,11.3001,11.3001,0,0,0-1.25542-2.55458c-1.8432-2.2168-5.98329-1.267-7.63449-3.63032a3.7343,3.7343,0,0,0-.77222,3.5537,1.95692,1.95692,0,0,1,2.39695.66466,16.37883,16.37883,0,0,1,1.30268,2.37939c.61161,1.059,1.585,1.99785,1.67035,3.21779a10.51737,10.51737,0,0,0,.02328,1.3839,5.59448,5.59448,0,0,0,1.20961,1.88779,5.41963,5.41963,0,0,1,.30849,5.04381,15.555,15.555,0,0,1-2.97294,4.31567,52.05482,52.05482,0,0,1-6.47359,6.51951,6.8006,6.8006,0,0,0-1.83751,1.84944,2.00549,2.00549,0,0,0,.20651,2.41965c-.46778.02343-1.30668.2535-1.77446.27693a41.25391,41.25391,0,0,1-.107-5.6435c-1.846-.88638-3.83361,1.48739-3.5954,3.52126s1.70927,3.666,2.75664,5.42569a6.41086,6.41086,0,0,1,1.07941,4.26271,3.134,3.134,0,0,1-3.06461,2.70652c-2.37292-.207-3.36547-3.61354-5.71528-4.00341a.96022.96022,0,0,0-.61841.0614c-.34881.19144-.40944.65816-.429,1.05557a13.10059,13.10059,0,0,0,.582,5.77678c1.11388,2.63081,3.99144,4.84037,3.38782,7.63277-3.25175-1.51153-4.94242-5.15815-5.71-8.66091s-.89556-7.18-2.27158-10.49136c-1.04485,1.33922-3.241.23213-4.19569-1.17282-.90507-1.332-1.46231-2.87274-2.34041-4.22263a5.19091,5.19091,0,0,0-3.83191-2.63286c-1.6866-.07783-3.14934,1.07958-4.43571,2.17317a10.34106,10.34106,0,0,0-2.76211,3.077c-.89976,1.8089-.66439,3.9414-.70776,5.96126a9.10287,9.10287,0,0,1-1.99794,6.08617c-1.48829,1.5986-4.23533,2.1554-5.87691.71466a6.6229,6.6229,0,0,1-1.6416-2.95466,144.64353,144.64353,0,0,1-4.44425-15.86552c-.27584,1.22534-1.35182,2.8047-2.37971,2.0829a2.131,2.131,0,0,1-.54824-.70638c-1.91735-3.24967-5.46809-5.19887-9.05567-6.36759s-7.36216-1.71389-10.91-2.99834a27.63427,27.63427,0,0,1-5.65954-2.81913,4.4511,4.4511,0,0,0-.272,4.55309,3.62687,3.62687,0,0,0,4.09226,1.71265c.78778-.25171,1.45305-.79859,2.2347-1.06869a1.74352,1.74352,0,0,1,2.1726.61562c.32717.72083-.16734,1.59283.078,2.34546.37361,1.14629,2.10247,1.2346,2.707,2.27772a2.09806,2.09806,0,0,1-.56254,2.433,10.18131,10.18131,0,0,1-2.28309,1.40569c-2.54376,1.41452-4.35268,3.82921-6.57577,5.70788s-5.35962,3.2503-8.009,2.04524c.63156-3.19789-3.17776-5.54569-3.87856-8.72912-.23067-1.0478-.11109-2.16085-.4404-3.182-.47678-1.47839-1.7884-2.49487-2.8644-3.61522a14.18848,14.18848,0,0,1-3.89169-10.32284,14.49025,14.49025,0,0,0,.00013-3.93515,2.94873,2.94873,0,0,0-2.67714-2.46549c-3.005.13275-6.79058.35626-8.36716-2.20536-.56268-.91425-.80755-2.25327.006-2.95371a2.85727,2.85727,0,0,1,2.17471-.37344l6.77063.666c1.58355.15578,3.29533.28434,4.65421-.54352s1.94769-3.02535.68942-3.99934c-.91937-.71166-2.56655-.67307-2.8338-1.80456-.22257-.94236.82049-2.01158.25714-2.79913-.40394-.56468-1.31207-.408-1.86238.0153a11.92984,11.92984,0,0,1-1.56544,1.36289c-1.08038.56225-2.37127.02715-3.53363-.33653s-2.72062-.39456-3.28441.685c-.63053,1.20737.55927,2.78943-.06648,3.99928-.82732,1.59955-3.62905.689-4.79094,2.06484-1.33327,1.5788.90724,3.933.45761,5.95a3.70385,3.70385,0,0,1-3.649-.205,3.54437,3.54437,0,0,1-1.5317-3.30013c.1113-.90732.58433-1.83349.26739-2.69091a3.15731,3.15731,0,0,0-1.59918-1.46341l-6.57953-3.63579c-.61086,1.13319.16141,2.538,1.12724,3.38916s2.17559,1.49218,2.81007,2.61231a3.42893,3.42893,0,0,1-1.29027,4.52064.79158.79158,0,0,1-.65219.11378.90994.90994,0,0,1-.423-.56879c-1.16089-2.9708-2.90385-5.8999-5.69043-7.4518s-6.79058-1.23282-8.6179,1.38143c-.434.62094-.72532,1.32872-1.10342,1.98522-2.00875,3.48783-6.31522,5.13945-10.3387,5.03157a2.05307,2.05307,0,0,1-1.12787-.265c-.65025-.4491-.621-1.40208-.52144-2.18606l.42235-3.327a2.64292,2.64292,0,0,1,.73647-1.82359c.74538-.58788,1.82064-.21689,2.76984-.23056a3.51024,3.51024,0,0,0,3.18616-2.459,3.956,3.956,0,0,0-1.10137-3.93412c-.43506-.40863-1.019-.92193-.78921-1.47279a1.21752,1.21752,0,0,1,.85382-.575c1.70505-.49514,3.50669-.62492,5.18331-1.20915a5.38226,5.38226,0,0,0,3.69965-3.51007c.12168-.53033.17708-1.17275.65344-1.43568a1.95948,1.95948,0,0,1,.75515-.15429,3.6746,3.6746,0,0,0,3.152-3.83075,2.39844,2.39844,0,0,1,2.70663.44872,7.61848,7.61848,0,0,0,2.40949,1.64357c1.76268.47975,3.46613-1.08093,5.29292-1.08817a6.81947,6.81947,0,0,0,2.28621.00814c.73267-.264,1.1702-.99337,1.73252-1.53218s1.549-.86746,2.06822-.287l-.44215-3.27513a6.43863,6.43863,0,0,0,5.24-.94735l-5.71452-1.93085a1.24242,1.24242,0,0,1-.53438-.28572c-.41546-.44737-.0028-1.14451.335-1.65305.80819-1.21657.94386-3.22056-.38519-3.82623-.90717-.41342-1.94845.08283-2.81917.56833l-4.17083,2.32557c-.13254.79281.837,1.24213,1.43774,1.77615a2.41062,2.41062,0,0,1-1.572,4.21216,3.00373,3.00373,0,0,1,.53643,2.54659l-2.80628.20183a1.21579,1.21579,0,0,1-.91019-.17765c-.30014-.26656-.25943-.73368-.329-1.129a2.4502,2.4502,0,0,0-2.05583-1.79449,7.23073,7.23073,0,0,0-2.87335.26536,1.71486,1.71486,0,0,1-1.23512-.0285,1.23331,1.23331,0,0,1-.48864-.61676,3.16849,3.16849,0,0,1,.63785-3.04193,16.88376,16.88376,0,0,1,2.39247-2.20049,13.94453,13.94453,0,0,0,4.14641-6.43126c1.54486-.64727,3.14422-1.52674,4.68908-2.174a14.34863,14.34863,0,0,1,7.71246-1.4943l5.23179.09993a12.54477,12.54477,0,0,1,4.57211.658,4.26326,4.26326,0,0,1,2.78969,3.41382,1.0479,1.0479,0,0,1-.33547.95805,1.23585,1.23585,0,0,1-.66145.1491C636.204,453.98762,635.588,454.34757,634.14346,454.39832Z" transform="translate(-50.38827 -82.55404)" fill="#f2f2f2"/><path d="M592.44273,470.79494a1.53092,1.53092,0,0,0,.41746-1.5397,2.86365,2.86365,0,0,0-2.96517.55991,4.99863,4.99863,0,0,0-.79438,1.05018,4.68218,4.68218,0,0,0-.89713,3.71511,1.05543,1.05543,0,0,0,.483.66063,1.26985,1.26985,0,0,0,.563.08819,18.87281,18.87281,0,0,0,2.26569-.13946c.46166-.05644.99786-.18681,1.17628-.61632.23453-.5646-.33312-1.20356-.16764-1.79211a1.95779,1.95779,0,0,1,.48344-.69233.91526.91526,0,0,0,.2851-.76839c-.06678-.27616-.48963-.43281-.64185-.1929" transform="translate(-50.38827 -82.55404)" fill="#f2f2f2"/><path d="M596.36989,465.70344a6.3391,6.3391,0,0,0-2.05312-.12893.89543.89543,0,0,0-.43749.09942.73.73,0,0,0-.26959.39041,1.93959,1.93959,0,0,0,1.12923,2.37691,2.42681,2.42681,0,0,1,.70025.2814c.58069.45054.2105,1.37144.32043,2.09814.12344.816.91332,1.501.7685,2.31348-.11409.64011-.79776,1.147-.68769,1.78778.11529.67117.967.87285,1.64584.9266a2.06994,2.06994,0,0,0,1.16607-.13364,1.80561,1.80561,0,0,0,.73568-1.06542,6.82929,6.82929,0,0,0,.344-2.5714,2.43833,2.43833,0,0,0-.28995-1.135,6.33843,6.33843,0,0,0-.67759-.77589C597.46383,468.65443,598.83335,466.39769,596.36989,465.70344Z" transform="translate(-50.38827 -82.55404)" fill="#f2f2f2"/><circle cx="433.66169" cy="393.32194" r="4.36395" fill="#4578ad"/><circle cx="473.08768" cy="486.62009" r="4.36395" fill="#4578ad"/><circle cx="640.27194" cy="392.72002" r="4.36395" fill="#4578ad"/><circle cx="717.01719" cy="501.66818" r="4.36395" fill="#4578ad"/><circle cx="574.5118" cy="455.32007" r="4.36395" fill="#4578ad"/><path d="M227.62208,319.10908c.00937,19.30969-11.46678,26.05659-25.62607,26.06346q-.49334.00024-.98193-.01053-.98434-.02076-1.94819-.08876c-12.77967-.89861-22.71254-7.9813-22.72126-25.93926-.009-18.58427,23.73157-42.04879,25.512-43.78377l.00314-.00158c.06764-.06612.10225-.09918.10225-.09918S227.6127,299.801,227.62208,319.10908Z" transform="translate(-50.38827 -82.55404)" fill="#4578ad"/><path d="M201.06142,342.21934l9.37074-13.10638-9.39365,14.54467-.02443,1.50438q-.98434-.02076-1.94819-.08876l1.00088-19.318-.00793-.14948.01728-.02834.09512-1.82542-9.4314-14.57172,9.45905,13.20424.02379.3871.75611-14.59555-8.07517-15.05862,8.17306,12.4936.78-30.26079.00309-.10071.00005.09913-.12057,23.86377,8.02549-9.4644-8.05913,11.51954-.20609,13.06888,7.49527-12.54525-7.52422,14.46664-.11449,7.267,10.8777-17.46285-10.919,19.998Z" transform="translate(-50.38827 -82.55404)" fill="#3f3d56"/><path d="M948.38827,313.446s4,27,3,29,3,13,19,10,22-24,22-24-13-17-11-22Z" transform="translate(-50.38827 -82.55404)" fill="#a0616a"/><polygon points="893.5 653.392 893.5 686.392 914.5 693.392 910.5 648.392 893.5 653.392" fill="#a0616a"/><polygon points="971.5 657.392 968.5 698.392 986.5 687.392 986.5 654.392 971.5 657.392" fill="#a0616a"/><path d="M921.88827,507.946s-13,23-9,30,4,10,4,10,2,54,16,80c0,0-3,51,3,82l6,31,23-3,2-33s4-39,0-57,11-78,11-78l26,87s1,32,6,53,7,33,7,33l22,1s7-65,0-97c0,0-3-98,0-104s-3-25-9-29S921.88827,507.946,921.88827,507.946Z" transform="translate(-50.38827 -82.55404)" fill="#2f2e41"/><path d="M952.88827,761.946s-1-6-6-6h-5l-1,8-18,18s-29,22-4,23,31-10,31-10,23-7,23-8-6-26-6-26l-3.26747.74092-2.73253,7.25908Z" transform="translate(-50.38827 -82.55404)" fill="#2f2e41"/><path d="M1039.88827,761.946s-11-4-11,0v4s-4-3-4,0-6,5-6,5l-1-5s-6,24-3,26,13,7,14,10,3,14,24,10,8-16,8-16l-11-11Z" transform="translate(-50.38827 -82.55404)" fill="#2f2e41"/><circle cx="909.5" cy="213.39191" r="28" fill="#a0616a"/><path d="M964.88827,346.946s-10.89111-3.05357-13.44556-8.52679-22.55444,4.52679-22.55444,4.52679l-7,88-2.5,77.5s50.5,19.5,66.5,13.5,35-9,35-9l3-150-5-28s-23.566-9.86125-28.283-8.93063C990.60528,326.01533,984.88827,347.946,964.88827,346.946Z" transform="translate(-50.38827 -82.55404)" fill="#d0cde1"/><path d="M950.65638,330.44521s-4.76811,4.50075-6.76811,4.50075-34,2-37,15,5,51,5,51,1,39,6,52,.5,21.5.5,21.5-6.5,33.5-.5,36.5,17.93254,7.60167,17.93254,7.60167S951.88827,500.946,946.88827,475.946s-12-61-8-73S950.65638,330.44521,950.65638,330.44521Z" transform="translate(-50.38827 -82.55404)" fill="#575a89"/><path d="M890.88827,472.946l7,13s33,37,39,16-24-26-24-26l-9-9Z" transform="translate(-50.38827 -82.55404)" fill="#a0616a"/><path d="M989.15642,323.946s37.73185,5,47.73185,15,2,57,2,57-12,72-11,76,1,38,1,38-13,14-24,10-25-33-11-68c5.8824-14.706,5.23267-29.05891,2.50154-40.75919a292.489,292.489,0,0,1-7.23339-87.24075Z" transform="translate(-50.38827 -82.55404)" fill="#575a89"/><path d="M1045.88827,464.946l-10,9s-57,2-42,17,51,0,51,0l13-14-13-12Z" transform="translate(-50.38827 -82.55404)" fill="#a0616a"/><path d="M937.34238,266.36311l-5.14681-2.0605s10.76147-11.84777,25.73407-10.81748l-4.21113-4.63614s10.29363-4.12092,19.65144,6.69656c4.91922,5.68653,10.61082,12.37072,14.15894,19.90041h5.51188l-2.30046,5.06533,8.05159,5.06534-8.26416-.90987a28.02883,28.02883,0,0,1-.78166,13.11867s-9.35781-10.81756-9.35781-12.87806v5.15121s-5.14681-4.63607-5.14681-7.72678l-2.80733,3.60586-1.40367-5.66635-17.31195,5.66635,2.80733-4.63607L945.76437,282.847l4.21113-5.66635s-8.97786,8.00795-12.63312,12.36291c-4.95411,5.90245-9.35767,7.72678-9.35767,7.72678S923.77358,274.08989,937.34238,266.36311Z" transform="translate(-50.38827 -82.55404)" fill="#2f2e41"/><path d="M914.88827,345.946l-9,4s-36,48-39,58-6,33,23,69l18-9s-20-29-13-40,23-30,23-30Z" transform="translate(-50.38827 -82.55404)" fill="#575a89"/><path d="M1030.88827,337.946l6,1s75,55,69,76-48,66-48,66l-16-15s35-41,21-51-32-27-32-27Z" transform="translate(-50.38827 -82.55404)" fill="#575a89"/></svg>